PathFileType	4	(X/Y/Z)	C:\Data\4407\4407cd03.trc
DataRate	CameraRate	NumFrames	NumMarkers	Units	OrigDataRate	OrigDataStartFrame	OrigNumFrames
200.00	200.00	      11	29	mm	200.00	251	      2000
Frame#	Time	Offset			RShoulder			RUpperArm			RElbow			RForearm			RWrist			LShoulder			LUpperArm			LElbow			LForearm			LWrist			LPSIS			RPSIS			RASIS			RThigh			RKnee			RShank			RAnkle			RHeel			RLat5			RToe			LASIS			LThigh			LKnee			LShank			LAnkle			LHeel			LLat5			LToe			
        X1	Y1	Z1	X2	Y2	Z2	X3	Y3	Z3	X4	Y4	Z4	X5	Y5	Z5	X6	Y6	Z6	X7	Y7	Z7	X8	Y8	Z8	X9	Y9	Z9	X10	Y10	Z10	X11	Y11	Z11	X12	Y12	Z12	X13	Y13	Z13	X14	Y14	Z14	X15	Y15	Z15	X16	Y16	Z16	X17	Y17	Z17	X18	Y18	Z18	X19	Y19	Z19	X20	Y20	Z20	X21	Y21	Z21	X22	Y22	Z22	X23	Y23	Z23	X24	Y24	Z24	X25	Y25	Z25	X26	Y26	Z26	X27	Y27	Z27	X28	Y28	Z28	X29	Y29	Z29	

251	1.250	335.56781	-121.11474	1431.25232	426.60205	4.05784	1563.31482	498.57275	-87.77939	1393.89026	568.34119	-32.76979	1253.49866	451.43912	80.96783	1205.38708	426.74091	180.38504	1292.88440	89.59740	-31.86755	1558.82202	98.65036	-204.60880	1438.84863	15.99546	-268.11710	1347.63538	40.99914	-168.49315	1217.00134	29.34233	-11.87689	1221.46558	232.60721	-139.28685	1078.38293	283.60190	-138.92218	1078.43091	383.87781	66.08949	1031.16125	317.01215	3.28250	713.91498	379.29010	-141.64410	555.74133	334.31323	-145.76398	474.31067	334.63947	-381.06085	210.91083	285.98041	-435.75046	239.43944	359.29779	-333.44650	69.14149	250.69890	-314.86398	71.37311	137.52890	65.06617	1049.04907	176.45203	214.23497	802.17859	110.20544	227.35527	622.18835	151.93553	242.30083	537.27417	133.32710	49.39046	232.51402	190.22525	-10.70161	225.27901	95.83955	163.10382	125.82452	204.79886	172.20006	110.93931	
252	1.255	336.07635	-120.27651	1433.59558	425.74039	4.76818	1566.47241	499.12387	-86.50278	1398.40234	569.54022	-31.57404	1257.81726	451.38104	80.29887	1209.52332	424.68594	179.60545	1296.48413	89.58527	-32.84750	1561.67261	100.40403	-205.29558	1441.82324	18.34775	-270.23453	1351.06665	41.70833	-169.58824	1220.89844	28.04620	-13.40966	1225.74524	232.87726	-137.84705	1081.69556	283.71109	-137.67213	1082.61304	382.52112	68.75937	1036.20020	317.77515	1.98858	716.64221	379.91324	-144.56189	560.02057	335.06430	-149.42456	478.24542	335.73740	-386.08453	217.07249	287.20242	-439.02390	247.70766	359.53238	-343.13440	72.07313	251.88872	-323.35583	75.55129	137.48935	66.37234	1052.81848	175.97807	213.95280	803.92804	110.13564	224.98453	622.88599	151.84813	242.12910	538.25092	132.21126	62.24802	226.31284	189.35719	2.45846	216.85571	96.65699	180.72650	123.73875	206.80324	187.99216	109.60278	
253	1.260	336.57440	-119.29642	1435.86914	424.89905	5.59845	1569.21667	499.78015	-85.17756	1402.77502	570.96887	-30.80225	1261.87878	451.17392	79.56256	1213.13574	422.89862	178.19897	1299.60168	89.50517	-33.73049	1564.19470	101.97106	-205.82402	1444.44348	20.62920	-272.21887	1353.95288	42.44076	-170.68501	1224.20825	26.71010	-14.73619	1229.69788	232.88556	-136.20090	1084.90234	283.84637	-136.05994	1085.27905	382.02280	70.23126	1038.49353	318.53531	1.20757	719.31110	380.38480	-147.06836	563.92163	335.85672	-152.57349	481.96127	336.85941	-390.95648	223.12486	287.98196	-441.98392	255.94989	359.82346	-353.02136	75.30938	253.35228	-331.82922	79.58910	137.19200	66.96979	1055.08252	175.27463	214.12610	804.91644	110.23486	222.33231	623.06451	151.88858	241.81723	539.22272	131.01810	75.13196	220.04710	188.04190	15.21335	208.93944	97.17940	197.58800	121.90086	206.45610	206.70471	109.07815	
254	1.265	336.86047	-118.40800	1437.77380	424.02615	6.25006	1571.83459	500.44208	-83.47144	1406.65210	571.96936	-29.89110	1265.64722	450.99515	78.53655	1216.08960	421.22217	177.57210	1302.26746	89.31747	-34.57242	1566.55359	103.21776	-206.19771	1446.75769	22.63542	-273.84634	1356.37415	43.16274	-171.41307	1227.22510	25.25171	-15.93709	1233.55420	232.87021	-134.96983	1087.73987	283.74377	-134.55898	1088.11926	381.64581	71.64452	1040.76233	318.95859	0.57188	721.80426	380.46439	-149.22096	567.53662	336.40674	-155.05241	485.17450	337.83218	-395.88284	229.32674	288.75903	-445.07904	263.78394	359.92352	-362.64340	78.81455	254.35406	-339.99011	83.67220	136.61479	67.03909	1056.01782	174.14717	213.95807	804.94617	110.36945	219.60902	622.52063	152.00667	241.05682	539.60632	130.20557	87.97745	214.14316	186.90424	27.93542	201.27522	98.36780	213.93634	120.48331	207.68726	222.69481	108.62390	
255	1.270	337.05548	-117.69890	1439.61108	423.31244	7.19689	1573.99060	501.26892	-81.89207	1410.34558	572.91431	-29.03228	1269.09106	450.86163	77.27698	1218.51086	419.40240	176.26590	1304.24341	89.05762	-35.25637	1568.45874	104.43664	-206.83150	1448.99353	24.54705	-276.44745	1358.50562	43.58462	-171.90198	1229.69116	23.86250	-16.87161	1236.96936	233.05261	-133.57126	1090.14954	283.99554	-133.09393	1090.59912	381.22574	72.97768	1042.96033	319.55820	0.91326	724.18060	380.97818	-150.42113	570.77350	336.91269	-157.00496	488.03766	338.51285	-400.83698	235.40263	289.56570	-448.24896	271.57050	360.08240	-371.99652	82.76479	255.75247	-348.44632	87.57223	136.38268	67.85165	1057.60583	173.03745	213.54388	804.39697	110.70560	216.50946	621.52887	151.01605	240.02817	540.48297	129.96046	100.57313	208.35721	185.88167	40.15842	194.27238	99.69610	229.73459	119.12245	209.22954	237.91003	108.51564	
256	1.275	336.98438	-117.01696	1441.12476	422.65802	7.94083	1575.87329	501.79761	-80.38412	1413.58667	574.02448	-28.58429	1272.09741	450.64667	76.00684	1220.51587	417.83676	175.42548	1305.83276	88.78330	-36.01051	1570.10657	105.17076	-207.20898	1450.49597	26.36789	-277.53329	1360.12756	44.11481	-172.25410	1231.90039	22.38374	-17.61674	1240.12024	233.18643	-132.73187	1092.18726	283.78979	-131.81151	1092.83374	380.96921	74.12722	1044.95007	319.79083	1.87874	726.35901	381.67206	-150.90742	573.39728	337.44891	-158.17834	490.46402	338.72382	-405.72156	240.72487	289.72818	-451.41058	278.89926	360.48340	-381.42838	87.45974	256.28705	-357.39536	91.75869	136.30675	69.18437	1059.83813	171.68115	212.70044	802.67810	110.61359	212.77907	620.05438	151.20731	238.39343	540.56921	130.39059	113.41094	203.09509	184.95143	52.25479	187.63312	101.26546	245.06067	118.30408	210.63431	251.86609	108.47932	
257	1.280	336.98611	-116.27180	1442.36084	421.92212	8.90495	1577.60986	502.40237	-79.02285	1416.46448	574.79474	-28.03672	1274.66833	450.50146	74.82338	1222.19690	416.18985	174.51399	1306.62622	88.45315	-36.67042	1571.61511	105.94572	-207.68713	1451.82776	27.79496	-278.44910	1361.03577	44.41569	-172.23370	1233.68652	20.93787	-17.97707	1243.03699	233.10875	-131.75005	1093.93774	283.93539	-130.75992	1094.76416	380.57291	75.28719	1046.90308	319.79138	3.26716	728.04315	382.08215	-150.44476	575.66058	338.28012	-158.74512	492.42947	339.42538	-410.48407	247.27208	289.85306	-455.16263	286.07999	361.41437	-390.60287	93.26434	256.72986	-366.14197	96.66013	135.61421	69.25423	1059.71155	169.98811	211.74873	800.12659	110.77159	209.18324	618.12103	151.57053	236.53334	540.21820	130.00172	124.87088	198.38599	184.08647	63.87397	181.59273	102.95715	259.60504	117.63283	212.47934	265.46957	109.11790	
258	1.285	336.81970	-115.62033	1443.47546	421.23929	9.89259	1578.99658	502.81592	-77.84605	1418.95703	575.68683	-27.57780	1277.08923	450.40308	73.37705	1223.22485	414.47168	172.89961	1306.77734	88.05029	-37.37985	1572.75476	106.53966	-207.98830	1452.83618	29.07523	-279.11752	1361.71179	44.57430	-171.99699	1235.05566	19.45856	-18.23970	1245.57642	233.24675	-130.82996	1095.25012	283.88577	-129.76907	1096.21582	380.24329	76.44766	1048.74365	319.82205	5.05922	729.52979	382.57809	-149.17894	577.07446	339.07419	-158.97948	493.82242	339.20883	-415.60498	253.34383	290.10385	-459.58078	293.42950	362.02802	-398.75269	99.39347	257.50247	-374.53159	101.55386	135.45590	70.79797	1061.12366	168.60072	210.27675	796.96173	111.34694	205.52666	615.84589	152.18192	234.33759	539.94489	129.95506	135.68968	194.25925	183.13399	74.51236	176.16287	104.89233	273.07211	117.29366	214.51778	278.10773	109.90925	
259	1.290	336.43311	-115.08665	1444.19214	420.66702	10.68834	1580.05591	503.39410	-76.83729	1420.98779	576.46027	-27.31152	1278.98938	450.15033	71.79964	1223.64343	412.87701	171.79796	1306.48523	87.65151	-37.88358	1573.56201	106.98821	-208.35829	1453.53784	30.23100	-279.64600	1361.90405	44.77028	-171.77905	1235.77539	18.07936	-18.43069	1247.91492	233.35974	-130.15820	1096.04858	283.90485	-128.95033	1097.28882	380.03030	77.52130	1050.32813	319.83453	7.38715	730.62109	383.13525	-147.47220	577.88629	339.49399	-158.96901	494.55807	338.56747	-420.81171	259.68607	289.41071	-464.15591	300.02194	362.68808	-406.20282	105.70026	258.16315	-381.97290	106.65142	135.04996	71.59002	1061.15393	167.23283	208.34572	793.15155	111.75948	201.71541	613.31378	152.86761	231.94841	539.37531	129.94983	145.87895	190.59462	182.42094	84.64069	171.10344	106.96724	285.83218	117.09718	216.84175	290.00259	111.20238	
260	1.295	336.04077	-114.57966	1445.02747	420.08243	11.70085	1580.80090	503.70453	-76.09967	1422.71570	576.91327	-27.11497	1280.62708	449.86908	70.83143	1223.90161	411.58524	170.73907	1305.41443	87.29934	-38.33932	1574.10718	107.29317	-208.58681	1453.72388	31.13679	-279.93655	1361.61182	44.57589	-170.96313	1236.47156	16.53234	-18.17464	1249.96179	233.26556	-129.39386	1096.53101	283.78119	-128.20534	1098.02588	379.77402	78.55987	1051.73682	319.78677	10.02749	731.39191	383.08701	-145.09920	578.07251	340.13956	-158.60631	494.95877	337.87756	-425.75235	266.23563	288.55896	-468.59015	306.59402	363.51733	-413.33917	112.04182	258.95923	-389.27585	111.84681	134.48547	71.58299	1059.94214	166.01370	206.49387	788.87842	112.13779	197.59760	610.66455	153.64693	229.32614	538.34192	130.06343	155.13991	187.25085	182.09389	94.12289	166.74982	109.40454	297.31226	117.22896	219.27139	300.46848	112.52295	
261	1.300	335.41534	-114.22201	1445.45947	419.58316	12.49362	1581.34851	503.96695	-75.51504	1423.96423	577.35205	-27.11512	1281.88721	449.92703	68.64807	1223.36853	410.21658	169.77559	1303.73376	86.80337	-38.78705	1574.32947	107.44045	-208.72662	1453.58960	31.90523	-280.06073	1361.02344	44.26683	-170.03020	1236.82288	15.01797	-17.75573	1251.75537	233.31627	-128.72324	1096.62512	283.90109	-127.38147	1098.50122	379.56927	79.36315	1052.93787	319.75772	12.91634	731.77814	383.36310	-142.12714	577.81567	340.51788	-157.76912	494.83395	336.54239	-429.77618	272.04663	286.92291	-472.30331	312.51419	364.39825	-420.11795	118.88807	259.97018	-395.85727	116.70377	134.36490	73.36266	1060.64136	165.03922	204.14081	784.49542	112.66526	193.81575	607.85852	156.81511	221.71857	535.61816	130.47363	163.54520	184.29967	181.59950	102.35289	162.82237	111.92158	307.61240	117.19064	221.90657	309.60178	114.00502	
